P2
24 7
255
208 248 248 248 248 248 248 248 248 248 248 248 248 248 248 248 248 248 248 248 248 248 248 104 
214 80 56 24 8 255 255 80 56 24 8 255 255 80 56 24 8 255 255 80 56 152 72 107 
214 198 255 255 255 255 255 198 255 255 255 255 255 198 255 255 255 255 255 198 255 255 99 107 
214 82 57 8 255 255 255 82 57 8 255 255 255 82 57 8 255 255 255 82 57 28 10 107 
214 70 255 255 255 255 255 198 255 255 255 255 255 198 255 255 255 255 255 70 255 255 255 107 
214 2 255 255 255 255 255 18 25 24 8 255 255 18 25 24 8 255 255 2 255 255 255 107 
22 31 31 31 31 31 31 31 31 31 31 31 31 31 31 31 31 31 31 31 31 31 31 11 
